<svg width="640" height="640" viewBox="0 0 640 640" fill="none" xmlns="http://www.w3.org/2000/svg">
  <rect width="640" height="640" rx="32" fill="#FDF6E3"/>
  <g filter="url(#shadow)">
    <path d="M108 272C134 222 232 156 310 168C388 180 470 200 490 268C510 336 498 398 466 438C434 478 360 498 294 488C228 478 172 446 146 404C120 362 82 322 108 272Z" fill="#FFF7C2"/>
    <path d="M170 184C228 172 284 184 326 194C368 204 386 214 404 228C422 242 438 260 454 274C470 288 486 298 496 320C506 342 508 376 504 402C500 428 486 446 462 462C438 478 404 492 362 492C320 492 270 482 226 470C182 458 142 444 124 410C106 376 110 322 124 280C138 238 154 196 170 184Z" fill="#FFD166"/>
    <path d="M154 206C188 200 238 192 280 200C322 208 350 224 380 246C410 268 442 296 446 332C450 368 426 412 390 438C354 464 306 472 262 470C218 468 178 456 154 432C130 408 122 372 122 340C122 308 120 280 130 252C140 224 154 206 154 206Z" fill="#F4A261"/>
  </g>
  <g filter="url(#shadow)">
    <path d="M180 190L310 160L358 188L220 226L180 190Z" fill="#EAE2D7"/>
    <path d="M220 226L358 188L396 214L266 250L220 226Z" fill="#D1C8BD"/>
    <path d="M266 250L396 214L432 240L304 276L266 250Z" fill="#BFB5AA"/>
    <path d="M304 276L432 240L452 262L326 296L304 276Z" fill="#ADA297"/>
    <path d="M326 296L452 262L468 288L340 320L326 296Z" fill="#9F9386"/>
    <path d="M340 320L468 288L464 326L332 350L340 320Z" fill="#8E8377"/>
    <path d="M332 350L464 326L452 360L324 382L332 350Z" fill="#7B6E62"/>
    <path d="M324 382L452 360L434 392L306 414L324 382Z" fill="#695C50"/>
    <path d="M306 414L434 392L392 430L272 450L306 414Z" fill="#55493D"/>
    <path d="M220 226V430L392 430V214L220 226Z" fill="#EDE8DE"/>
    <path d="M392 214V430L414 414V236L392 214Z" fill="#C7C0B6"/>
    <path d="M220 226V430L198 414V212L220 226Z" fill="#C7C0B6"/>
    <path d="M198 212L332 184V208L198 236V212Z" fill="#F2EDE4"/>
    <path d="M332 184L416 214V236L332 208V184Z" fill="#D6D0C5"/>
    <path d="M246 252C248 254 250 256 252 258C258 264 264 270 270 276C276 282 282 288 286 292C292 298 296 302 300 306C304 310 308 314 312 316C314 318 316 318 320 318C324 318 330 316 334 314C338 312 344 310 348 308C352 306 354 306 358 306C362 306 366 308 368 312C370 316 370 320 368 324C366 328 362 332 358 334C354 336 348 338 342 338C336 338 328 336 320 332C312 328 304 322 296 314C288 306 280 296 272 288C264 280 256 270 250 262C248 260 246 258 244 256C240 252 242 248 246 252Z" fill="#A33B2E"/>
    <path d="M246 252C248 254 250 256 252 258C258 264 264 270 270 276C276 282 282 288 286 292C292 298 296 302 300 306C304 310 308 314 312 316C314 318 316 318 320 318C324 318 330 316 334 314C338 312 344 310 348 308C352 306 354 306 358 306C362 306 366 308 368 312C370 316 370 320 368 324C366 328 362 332 358 334C354 336 348 338 342 338C336 338 328 336 320 332C312 328 304 322 296 314C288 306 280 296 272 288C264 280 256 270 250 262C248 260 246 258 244 256C240 252 242 248 246 252Z" stroke="#321916" stroke-width="10" stroke-linecap="round"/>
    <circle cx="352" cy="276" r="16" fill="#F25F5C" stroke="#2D1B1A" stroke-width="8"/>
  </g>
  <g filter="url(#glow)">
    <circle cx="486" cy="160" r="22" fill="#FFDD76"/>
    <circle cx="160" cy="150" r="18" fill="#FFE4A3"/>
    <circle cx="114" cy="320" r="16" fill="#FFE89C"/>
    <circle cx="510" cy="348" r="24" fill="#FFC857"/>
  </g>
  <defs>
    <filter id="shadow" x="70" y="120" width="438" height="380" filterUnits="userSpaceOnUse" color-interpolation-filters="sRGB">
      <feFlood flood-opacity="0" result="BackgroundImageFix"/>
      <feColorMatrix in="SourceAlpha" type="matrix" values="0 0 0 0 0 0 0 0 0 0 0 0 0 0 0 0 0 0 127 0" result="hardAlpha"/>
      <feOffset dx="6" dy="10"/>
      <feGaussianBlur stdDeviation="18"/>
      <feComposite in2="hardAlpha" operator="out"/>
      <feColorMatrix type="matrix" values="0 0 0 0 0.05 0 0 0 0 0.05 0 0 0 0 0.05 0 0 0 0.32 0"/>
      <feBlend mode="normal" in2="BackgroundImageFix" result="effect1_dropShadow"/>
      <feBlend mode="normal" in="SourceGraphic" in2="effect1_dropShadow" result="shape"/>
    </filter>
    <filter id="glow" x="86" y="122" width="446" height="274" filterUnits="userSpaceOnUse" color-interpolation-filters="sRGB">
      <feFlood flood-opacity="0" result="BackgroundImageFix"/>
      <feBlend mode="normal" in="SourceGraphic" in2="BackgroundImageFix" result="shape"/>
      <feGaussianBlur stdDeviation="12" result="effect1_foregroundBlur"/>
    </filter>
  </defs>
</svg>
